<svg width="143" height="144" viewBox="0 0 143 144" fill="none" xmlns="http://www.w3.org/2000/svg">
<g filter="url(#filter0_dd_6_100)">
<path d="M71.3095 52.4218C71.3095 61.7222 63.7704 69.2607 54.4705 69.2607C63.7704 69.2607 71.3095 76.7992 71.3095 86.0997C71.3095 76.7992 78.8486 69.2607 88.1484 69.2607C78.8486 69.2607 71.3095 61.7222 71.3095 52.4218Z" fill="white"/>
<path d="M47.787 113.992L49.6679 114.996L48.9464 116.348L45.6195 114.572L50.2062 105.979L51.6522 106.751L47.787 113.992Z" fill="white"/>
<path d="M41.7075 106.274C39.6108 108.454 37.0166 108.807 35.2205 107.079C33.4244 105.352 33.6655 102.737 35.7622 100.557C37.8497 98.3859 40.3585 98.0071 42.2219 99.799C44.0852 101.591 43.795 104.103 41.7075 106.274ZM40.4973 105.11C42.0583 103.487 42.2827 101.947 41.1781 100.884C40.064 99.8129 38.5334 100.097 36.9724 101.72C35.3744 103.382 35.1501 104.923 36.2642 105.994C37.3688 107.056 38.8994 106.772 40.4973 105.11Z" fill="white"/>
<path d="M31.4015 94.9034C28.721 96.3052 26.1491 95.8155 24.9944 93.6074C23.8397 91.3992 24.8986 88.9958 27.5791 87.5941C30.2477 86.1985 32.7471 86.6358 33.9451 88.9267C35.143 91.2175 34.0701 93.5078 31.4015 94.9034ZM30.6234 93.4156C32.619 92.372 33.3209 90.9824 32.6107 89.6244C31.8944 88.2547 30.3527 88.0383 28.3571 89.0819C26.3143 90.1502 25.6124 91.5398 26.3287 92.9096C27.0389 94.2675 28.5806 94.4839 30.6234 93.4156Z" fill="white"/>
<path d="M21.9267 76.1076C23.4215 75.9262 24.595 76.8577 24.7731 78.3261C24.9512 79.7944 24.0346 80.9795 22.5398 81.1608C21.0582 81.3406 19.8715 80.4107 19.6934 78.9423C19.5153 77.474 20.4451 76.2873 21.9267 76.1076ZM18.9418 71.087L29.4892 77.2573L29.685 78.8712L19.1376 72.7009L18.9418 71.087ZM22.0824 77.3907C21.3151 77.4838 20.847 78.0507 20.9369 78.7915C21.0267 79.5323 21.6152 79.9575 22.3825 79.8644C23.1497 79.7714 23.6179 79.2045 23.5296 78.4769C23.4398 77.7361 22.8496 77.2976 22.0824 77.3907ZM26.0589 68.7873C27.5405 68.6076 28.7256 69.5243 28.9037 70.9926C29.0834 72.4742 28.1519 73.6476 26.6703 73.8274C25.1888 74.0071 24.0037 73.0904 23.824 71.6089C23.6458 70.1405 24.5773 68.9671 26.0589 68.7873ZM26.2146 70.0705C25.4473 70.1636 24.9792 70.7304 25.0674 71.458C25.1573 72.1988 25.7474 72.6373 26.5147 72.5442C27.2819 72.4511 27.7501 71.8843 27.6602 71.1435C27.572 70.4159 26.9818 69.9774 26.2146 70.0705Z" fill="white"/>
<path d="M24.4624 52.4494C22.8991 51.7673 22.377 49.9984 23.1977 48.1175C23.9864 46.31 25.4889 45.5989 27.1224 46.2535L26.4402 47.8168C25.6548 47.5177 24.9631 47.8701 24.5794 48.7495C24.1584 49.7143 24.3507 50.5397 25.0957 50.8648C25.7308 51.1419 26.2342 50.9545 26.7303 50.2841L27.6485 49.0128C28.6444 47.63 29.7511 47.2261 31.0824 47.807C32.7434 48.5317 33.2533 50.2953 32.3953 52.2617C31.5639 54.167 30.0066 54.9704 28.3907 54.3089L29.0728 52.7456C29.8354 53.0638 30.5537 52.6503 30.9907 51.6488C31.4437 50.6107 31.2796 49.754 30.5346 49.4289C29.9361 49.1678 29.4487 49.3185 28.9702 49.9821L28.0344 51.2603C27.0439 52.6308 25.8303 53.0463 24.4624 52.4494Z" fill="white"/>
<path d="M37.6662 42.9066L36.6436 44.1532L28.9786 37.8653L30.0013 36.6187L34.7094 40.481L34.1995 36.7535L35.4926 35.1772L35.923 38.7706L40.5482 39.3935L39.365 40.8358L36.1318 40.4069L36.296 41.7825L37.6662 42.9066Z" fill="white"/>
<path d="M40.2307 29.2107C39.7903 29.5562 39.173 29.4816 38.8357 29.0518C38.4985 28.6219 38.5813 28.015 39.0217 27.6696C39.441 27.3406 40.0502 27.4046 40.3874 27.8345C40.7246 28.2644 40.6501 28.8818 40.2307 29.2107ZM44.4684 35.9296L40.4054 30.7504L41.6845 29.747L45.7475 34.9262L44.4684 35.9296Z" fill="white"/>
<path d="M51.9246 31.0537L50.4979 31.8049L45.8789 23.0325L47.3056 22.2813L51.9246 31.0537Z" fill="white"/>
<path d="M59.4379 28.0492L57.895 28.5174L55.0165 19.0303L56.5594 18.5622L59.4379 28.0492Z" fill="white"/>
<path d="M68.6569 26.5917C66.7024 26.722 65.2382 25.3905 65.1027 23.3562C64.9654 21.2954 66.2135 19.7832 68.1414 19.6548C70.1092 19.5237 71.4467 20.7568 71.5831 22.8043L71.6159 23.2963L66.6707 23.6391C66.8674 24.7878 67.518 25.3321 68.595 25.2604C69.4858 25.201 70.0478 24.8164 70.1923 24.1791L71.6947 24.079C71.5112 25.5335 70.3721 26.4775 68.6569 26.5917ZM68.2433 20.9835C67.286 21.0473 66.7355 21.6048 66.6415 22.5993L69.9389 22.3797C69.8786 21.4755 69.2139 20.9189 68.2433 20.9835Z" fill="white"/>
<path d="M79.6509 27.2967C77.7868 26.9012 76.9171 25.2864 77.3402 23.292C77.7661 21.2845 79.2435 20.0996 81.1858 20.5116C82.0852 20.7025 82.8001 21.2492 83.0687 21.9737L83.9344 17.8936L85.5116 18.2283L83.454 27.9265L81.9941 27.6167L82.1027 26.5909C81.554 27.2509 80.6285 27.5041 79.6509 27.2967ZM80.3126 25.9114C81.4206 26.1465 82.3062 25.5034 82.5523 24.3433C82.7985 23.1832 82.253 22.2229 81.145 21.9878C80.037 21.7527 79.1849 22.4301 78.9416 23.5772C78.6982 24.7243 79.2046 25.6763 80.3126 25.9114Z" fill="white"/>
<path d="M101.095 28.0377C100.642 27.7092 100.544 27.0951 100.865 26.6527C101.185 26.2104 101.791 26.1232 102.245 26.4516C102.676 26.7644 102.782 27.3678 102.461 27.8101C102.141 28.2525 101.527 28.3505 101.095 28.0377ZM95.7994 33.9587L99.6627 28.6288L100.979 29.5828L97.1157 34.9127L95.7994 33.9587Z" fill="white"/>
<path d="M102.513 39.7142L101.447 38.4872L106.415 34.1688L107.403 35.3053L106.847 35.9653C107.621 35.84 108.437 36.1899 109.022 36.8637C110.106 38.1108 109.892 39.4276 108.604 40.5466L105.547 43.2041L104.48 41.9771L107.246 39.5731C108.081 38.8475 108.125 38.0855 107.574 37.4519C106.918 36.6976 105.993 36.6895 105.189 37.3889L102.513 39.7142Z" fill="white"/>
<path d="M112.956 59.2059L112.187 55.7869L121.69 53.648L122.439 56.9761C123.071 59.7841 121.57 62.1571 118.736 62.795C115.941 63.424 113.576 61.962 112.956 59.2059ZM120.87 57.1653L120.53 55.6573L114.095 57.1057L114.455 58.7047C114.882 60.6027 116.365 61.4847 118.341 61.0399C120.356 60.5864 121.311 59.1284 120.87 57.1653Z" fill="white"/>
<path d="M113.798 72.1161C113.942 70.1625 115.464 68.898 117.497 69.0471C119.557 69.1982 120.881 70.6447 120.74 72.5718C120.595 74.5386 119.188 75.6914 117.141 75.5413L116.65 75.5052L116.999 70.5605C115.834 70.5953 115.204 71.1637 115.125 72.2402C115.06 73.1306 115.363 73.7407 115.974 73.9725L115.864 75.4743C114.449 75.0899 113.673 73.8305 113.798 72.1161ZM119.41 72.4876C119.48 71.5307 119.004 70.908 118.033 70.6764L117.791 73.9722C118.695 74.0385 119.338 73.4577 119.41 72.4876Z" fill="white"/>
<path d="M114.653 80.5942L114.152 82.0567C113.606 81.8837 113.128 82.1706 112.886 82.8766C112.64 83.5953 112.796 84.0853 113.25 84.2407C113.565 84.3486 113.848 84.2624 114.164 83.7508L114.813 82.7194C115.449 81.6836 116.164 81.3227 117.16 81.6636C118.383 82.0822 118.76 83.3663 118.269 84.8036C117.79 86.203 116.659 86.8723 115.444 86.4707L115.945 85.0082C116.479 85.1769 116.94 84.9404 117.143 84.3478C117.35 83.7427 117.193 83.2947 116.727 83.1351C116.374 83.0142 116.052 83.2139 115.745 83.7003L115.096 84.7317C114.498 85.6961 113.838 86.0616 112.88 85.7337C111.619 85.3021 111.204 83.963 111.731 82.4249C112.261 80.8742 113.43 80.1756 114.653 80.5942Z" fill="white"/>
<path d="M114.835 94.9001C115.122 94.4197 115.725 94.2679 116.194 94.5483C116.663 94.8287 116.803 95.4249 116.516 95.9053C116.243 96.3627 115.651 96.5214 115.182 96.241C114.713 95.9606 114.561 95.3576 114.835 94.9001ZM108.47 90.1475L114.12 93.5255L113.285 94.9208L107.635 91.5428L108.47 90.1475Z" fill="white"/>
<path d="M107.19 98.2889C108.572 99.6205 108.739 101.521 107.435 102.874C106.751 103.584 105.917 103.854 105.141 103.642L105.728 104.338L104.683 105.422L100.183 101.085C98.6003 99.5597 98.5274 97.6574 100.007 96.1222C101.32 94.7597 102.994 94.578 104.399 95.6546L103.271 96.8252C102.583 96.3102 101.765 96.429 101.072 97.1486C100.295 97.9546 100.304 98.9628 101.091 99.721L101.878 100.479C101.723 99.7564 102.009 98.903 102.666 98.2217C103.96 96.8785 105.818 96.9666 107.19 98.2889ZM106.082 99.4968C105.285 98.7294 104.201 98.6646 103.461 99.4322C102.684 100.238 102.769 101.283 103.594 102.078C104.4 102.855 105.429 102.902 106.215 102.086C106.964 101.309 106.859 100.246 106.082 99.4968Z" fill="white"/>
<path d="M94.0583 105.165L95.4701 104.359L98.734 110.076L97.4264 110.822L96.8878 110.148C96.8594 110.931 96.3567 111.663 95.5814 112.106C94.1465 112.925 92.8971 112.457 92.0514 110.976L90.0428 107.458L91.4546 106.652L93.2716 109.834C93.82 110.795 94.5587 110.987 95.2877 110.57C96.1557 110.075 96.3444 109.169 95.8158 108.243L94.0583 105.165Z" fill="white"/>
<circle cx="71.3047" cy="68.2609" r="66.7812" stroke="url(#paint0_radial_6_100)"/>
</g>
<defs>
<filter id="filter0_dd_6_100" x="0.0234375" y="0.979614" width="142.562" height="142.562" filterUnits="userSpaceOnUse" color-interpolation-filters="sRGB">
<feFlood flood-opacity="0" result="BackgroundImageFix"/>
<feColorMatrix in="SourceAlpha" type="matrix" values="0 0 0 0 0 0 0 0 0 0 0 0 0 0 0 0 0 0 127 0" result="hardAlpha"/>
<feOffset dy="4"/>
<feGaussianBlur stdDeviation="2"/>
<feComposite in2="hardAlpha" operator="out"/>
<feColorMatrix type="matrix" values="0 0 0 0 0 0 0 0 0 0 0 0 0 0 0 0 0 0 0.25 0"/>
<feBlend mode="normal" in2="BackgroundImageFix" result="effect1_dropShadow_6_100"/>
<feColorMatrix in="SourceAlpha" type="matrix" values="0 0 0 0 0 0 0 0 0 0 0 0 0 0 0 0 0 0 127 0" result="hardAlpha"/>
<feOffset dy="4"/>
<feGaussianBlur stdDeviation="2"/>
<feComposite in2="hardAlpha" operator="out"/>
<feColorMatrix type="matrix" values="0 0 0 0 0 0 0 0 0 0 0 0 0 0 0 0 0 0 0.25 0"/>
<feBlend mode="normal" in2="effect1_dropShadow_6_100" result="effect2_dropShadow_6_100"/>
<feBlend mode="normal" in="SourceGraphic" in2="effect2_dropShadow_6_100" result="shape"/>
</filter>
<radialGradient id="paint0_radial_6_100" cx="0" cy="0" r="1" gradientUnits="userSpaceOnUse" gradientTransform="translate(71.3047 18.3968) rotate(90) scale(117.145)">
<stop stop-color="#AD13FB"/>
<stop offset="0.473958" stop-color="#3313FB"/>
<stop offset="1" stop-color="#AF11FF"/>
</radialGradient>
</defs>
</svg>
